<?xml version="1.0" encoding="UTF-8"?>
<svg id="Capa_1" xmlns="http://www.w3.org/2000/svg" version="1.1" viewBox="0 0 2834.65 1984.25">
  <!-- Generator: Adobe Illustrator 30.2.1, SVG Export Plug-In . SVG Version: 2.1.1 Build 1)  -->
  <defs>
    <style>
      .st0 {
        fill: #fff;
      }
    </style>
  </defs>
  <path class="st0" d="M769.53,725.72h-139.88c-4.95,0-8.96,4.01-8.96,8.96v626.76c0,4.95,4.01,8.96,8.96,8.96h65.01c4.95,0,8.96-4.01,8.96-8.96v-245.62c0-4.94,4.01-8.95,8.95-8.95h56.96c60.28,0,109.15-26.51,109.15-86.79v-185.21c0-60.28-48.87-109.15-109.15-109.15ZM783.1,997.38c0,17.27-14,31.27-31.27,31.27h-41.33c-4.95,0-8.96-4.01-8.96-8.96v-204.76c0-4.95,4.01-8.96,8.96-8.96h41.33c17.27,0,31.27,14,31.27,31.27v160.14Z"/>
  <path class="st0" d="M1458.17,725.72h-97.92c-58.8,0-106.46,47.66-106.46,106.46v367.1h-57.58c-27.98,0-53.16-17-63.61-42.96l-20.07-56.97c-5.82-16.52-18.1-29.97-34.03-37.26h1.21c36.83,0,66.69-29.86,66.69-66.69v-166.09c0-57.22-46.38-103.6-103.6-103.6h-140.1c-4.94,0-8.95,4.01-8.95,8.95v626.84c0,4.91,3.98,8.88,8.88,8.88h63.77c4.91,0,8.88-3.98,8.88-8.88v-293.75c30.39,0,57.85,18.1,69.84,46.02l30.9,93.46c15.8,36.8,52,60.65,92.05,60.65h85.85c2.57,56.57,49.19,102.52,106.34,102.52h97.92c5,0,9.05-4.05,9.05-9.05v-62.19c0-5-4.05-9.05-9.05-9.05h-95c-15.38,0-27.85-12.47-27.85-27.85v-192.85h85.63c3.64,0,6.6-2.95,6.6-6.6v-68.34c0-3.64-2.95-6.6-6.6-6.6h-85.63v-154.21c0-15.43,12.54-27.92,27.97-27.85l94.84.43c5.01.02,9.09-4.03,9.09-9.05v-62.44c0-5-4.05-9.05-9.05-9.05ZM1065.52,962.43c0,14.97-12.14,27.11-27.11,27.11h-54.17c-4.95,0-8.96-4.01-8.96-8.96v-163.51c0-4.95,4.01-8.96,8.96-8.96h54.17c14.97,0,27.11,12.14,27.11,27.11v127.2Z"/>
  <path class="st0" d="M1740.37,1026.94h-131.26c-4.33,0-7.36,4.27-5.93,8.35l24.08,69.06c.88,2.52,3.26,4.21,5.93,4.21h35.88v151.34c0,16.49-13.37,29.87-29.87,29.87h-41.36c-16.58,0-30.03-13.44-30.03-30.03v-423.71c0-16.58,13.44-30.03,30.03-30.03h119.82c4.98,0,9.02-4.04,9.02-9.02v-62.25c0-4.98-4.04-9.02-9.02-9.02h-124.43c-59.35,0-107.46,48.11-107.46,107.46v430.04c0,59.35,48.11,107.46,107.46,107.46h147.14c5.19,0,9.4-4.21,9.4-9.4v-324.94c0-5.19-4.21-9.4-9.4-9.4Z"/>
  <path class="st0" d="M2124.95,733.67v63.73c0,4.76,3.86,8.62,8.62,8.62h85.57v387.03h-109.64c-12.44,0-22.53-10.09-22.53-22.53v-436.13c0-5.15-4.18-9.33-9.33-9.33h-88.88c-50.24,0-93.65,35.08-104.19,84.2l-118.24,550.75c-1.18,5.5,3.01,10.68,8.63,10.68h64.56c4.17,0,7.77-2.92,8.63-6.99l62.01-288.48c.92-4.34,4.76-7.45,9.2-7.45h76.76c5.19.01,9.4,4.23,9.4,9.42v124.94c0,40.01,32.43,72.44,72.44,72.44h141.18v87.61c0,4.7,3.81,8.51,8.51,8.51h64.5c4.7,0,8.51-3.81,8.51-8.51v-555.82h85.57c4.76,0,8.62-3.86,8.62-8.62v-64.06c0-4.76-3.86-8.62-8.62-8.62h-252.67c-4.76,0-8.62,3.86-8.62,8.62ZM2005.59,981.37c0,4.51-3.66,8.17-8.17,8.17h-58.79c-5.22,0-9.1-4.83-7.97-9.93l32.76-151.2c2.82-12.75,14.13-21.82,27.18-21.82h6.08c4.92,0,8.91,3.99,8.91,8.91v165.87Z"/>
</svg>